<svg xmlns="http://www.w3.org/2000/svg" version="1.1" xmlns:xlink="http://www.w3.org/1999/xlink" xmlns:svgjs="http://svgjs.com/svgjs" width="128.000000pt" height="128.000000pt"><svg version="1.0" xmlns="http://www.w3.org/2000/svg" width="128.000000pt" height="128.000000pt" viewBox="0 0 128.000000 128.000000" preserveAspectRatio="xMidYMid meet">

<g transform="translate(0.000000,128.000000) scale(0.100000,-0.100000)" fill="#000000" stroke="none" >
<path d="M928 1247 c-46 -35 -128 -148 -128 -177 0 -9 9 -28 19 -41 17 -22 17
-28 5 -49 -19 -35 -17 -50 10 -79 13 -15 26 -38 30 -52 6 -26 5 -26 -52 -25
l-57 1 -3 55 c-3 77 -8 94 -38 129 -22 27 -32 31 -74 31 -44 0 -52 -4 -77 -35
-23 -29 -29 -47 -33 -107 l-5 -73 -220 -5 c-240 -5 -249 -8 -280 -66 -12 -24
-15 -80 -15 -332 0 -336 3 -356 62 -392 32 -19 49 -20 561 -20 578 0 574 0
614 58 16 24 18 56 21 297 5 343 1 384 -41 425 -17 16 -39 30 -49 30 -16 0
-15 3 7 23 24 21 26 29 34 152 5 72 7 133 5 136 -6 11 -231 149 -242 149 -6 0
-30 -15 -54 -33z m167 -61 l100 -64 -2 -108 c-2 -60 -5 -119 -8 -130 -8 -34
-37 -39 -61 -10 -18 20 -21 33 -17 70 7 57 -12 63 -22 7 -3 -21 -23 -63 -42
-92 -20 -30 -48 -76 -63 -104 -30 -55 -49 -71 -74 -62 -27 11 -18 49 35 136
32 53 47 87 41 93 -6 6 -20 -7 -37 -36 -15 -25 -33 -46 -41 -46 -28 0 -26 30
5 80 17 28 31 55 31 60 0 22 -20 8 -41 -30 -14 -25 -29 -40 -39 -38 -27 5 -22
44 14 103 19 32 32 63 29 68 -6 10 -38 -22 -45 -45 -7 -19 -28 1 -28 26 0 45
116 187 153 186 6 0 57 -29 112 -64z m-423 -213 c26 -23 27 -217 1 -245 -21
-24 -46 -23 -69 3 -16 18 -19 37 -19 119 0 82 3 101 19 119 23 25 43 27 68 4z
m467 -150 c2 -2 -14 -3 -37 -3 -43 0 -54 14 -30 38 9 9 18 7 37 -11 14 -12 28
-23 30 -24z m-608 -80 c40 -106 158 -112 210 -11 19 37 21 38 74 38 l55 0 -7
-30 c-7 -38 19 -70 56 -70 34 0 43 7 75 58 l26 42 69 0 c54 0 74 -4 95 -21
l26 -20 0 -311 c0 -276 -2 -314 -17 -330 -15 -17 -37 -18 -267 -18 l-251 0
-20 36 c-20 38 -78 74 -119 74 -37 0 -40 15 -8 52 16 18 34 48 40 67 18 50 15
182 -4 219 -53 107 -230 108 -284 2 -40 -78 -21 -232 36 -292 29 -30 25 -48
-11 -48 -42 0 -92 -31 -115 -71 -18 -33 -26 -39 -54 -39 -67 0 -67 0 -64 356
l3 318 25 13 c18 9 83 13 223 13 l197 0 11 -27z m-51 -216 c38 -29 50 -61 50
-130 0 -65 -20 -127 -41 -127 -19 0 -39 -35 -39 -69 0 -46 23 -70 76 -78 38
-6 74 -27 74 -45 0 -9 -343 -11 -353 -1 -12 11 25 43 51 43 13 0 39 7 58 16
31 15 34 20 34 61 0 38 -5 49 -34 76 -28 27 -35 42 -41 89 -9 70 0 110 32 148
21 26 32 30 71 30 26 0 54 -6 62 -13z"></path>
<path d="M996 1223 c-3 -3 -3 -10 0 -14 7 -12 34 -11 34 0 0 11 -26 22 -34 14z"></path>
<path d="M1040 1191 c0 -11 115 -91 132 -91 22 0 2 23 -49 56 -68 43 -83 50
-83 35z"></path>
<path d="M614 915 c-4 -9 -2 -21 4 -27 16 -16 47 -5 47 17 0 26 -42 34 -51 10z"></path>
<path d="M788 733 c-29 -7 -20 -23 13 -23 19 0 29 4 27 12 -5 14 -17 17 -40
11z"></path>
<path d="M1020 730 c0 -5 13 -10 29 -10 17 0 33 5 36 10 4 6 -8 10 -29 10 -20
0 -36 -4 -36 -10z"></path>
<path d="M980 662 c0 -13 35 -42 50 -42 9 0 5 9 -10 25 -24 25 -40 32 -40 17z"></path>
<path d="M827 642 c-21 -23 -21 -32 -3 -32 7 0 21 11 30 25 13 20 14 25 3 25
-8 0 -21 -8 -30 -18z"></path>
<path d="M914 626 c-8 -21 3 -49 16 -41 5 3 10 15 10 25 0 25 -18 36 -26 16z"></path>
<path d="M913 536 c5 -11 -12 -15 -83 -18 -92 -3 -115 -13 -104 -41 5 -15 27
-17 185 -17 154 0 180 2 186 16 10 26 -14 38 -87 42 -51 3 -70 8 -70 18 0 8
-7 14 -16 14 -10 0 -14 -6 -11 -14z"></path>
<path d="M730 335 c-18 -22 5 -45 45 -45 18 0 38 7 45 15 18 22 -5 45 -45 45
-18 0 -38 -7 -45 -15z"></path>
<path d="M873 343 c-18 -7 -16 -40 3 -47 32 -12 121 -6 134 9 23 27 -5 45 -69
44 -31 0 -62 -3 -68 -6z"></path>
<path d="M735 226 c-17 -12 -17 -16 -6 -30 12 -14 30 -16 105 -14 80 3 91 5
94 22 2 10 -2 22 -10 27 -22 14 -162 11 -183 -5z"></path>
<path d="M776 862 c-3 -6 -1 -14 5 -17 15 -10 25 3 12 16 -7 7 -13 7 -17 1z"></path>
</g>
</svg><style>@media (prefers-color-scheme: light) { :root { filter: none; } }
</style></svg>
